<?xml version="1.0" encoding="UTF-8"?>
<svg xmlns="http://www.w3.org/2000/svg" width="3560" height="4160" viewBox="0 0 3560 4160"
     font-family="'Noto Sans CJK SC','Noto Sans SC','Source Han Sans SC',sans-serif">
  <title>无人车左右侧视线框</title>
  <desc>Autonomous boxy vehicle orthographic left+right side elevations only.
Scale 1 user unit = 1 mm. L=3000 H=1700 W=1100.
Rear L-cutout depth≈460mm (估测), shelf height≈1140mm (估测); rear white face VERTICAL.
Front (车头) white-body slant ≈6.0° from vertical (inset 120mm / WHITE_H).
Right side: display screen ≈1280×820mm + seam band (non-decal). Left: solid panel.
Red/silver 警示贴条 on front slant + rear L corners (non-decal). Lower chassis filled #c8c8c8 = non-decal.
No front view, no top view.</desc>
  <rect width="100%" height="100%" fill="#ffffff"/>

  <!-- Title block -->
  <text x="1780.0" y="78" text-anchor="middle" font-size="64" font-weight="700" fill="#111">无人车左右侧视线框</text>
  <text x="1780.0" y="128" text-anchor="middle" font-size="30" fill="#444">比例 1:1　单位 mm　长 3000 × 高 1700 × 宽 1100　（仅左侧视 + 右侧视）</text>
  <text x="1780.0" y="164" text-anchor="middle" font-size="24" fill="#666">测 C·L90300　箱型无人道路测试车　线框供贴花/覆膜设计　灰底=黑下底盘非贴花区</text>

  <!-- 左侧视 nose_left=False -->
<rect x="280" y="1360" width="3000" height="560" fill="#c8c8c8" stroke="none"/>
<path d="M 280,780 L 740,780 L 740,220 L 3160,220 L 3280,1360 L 3280,1880 A 40 40 0 0 1 3240,1920 L 280,1920 L 280,780 Z" fill="none" stroke="#111" stroke-width="3" stroke-linejoin="miter"/>
<line x1="280" y1="1360" x2="3280" y2="1360" stroke="#111" stroke-width="2.5"/>
<line x1="2900" y1="228" x2="2900" y2="1360" stroke="#111" stroke-width="2"/>
<rect x="765" y="270" width="2110" height="1050" rx="8" fill="none" stroke="#111" stroke-width="2"/>
<rect x="805" y="310" width="2030" height="930" rx="4" fill="none" stroke="#111" stroke-width="1.2"/>
<rect x="1750.0" y="1279.0" width="140" height="32" rx="4" fill="none" stroke="#111" stroke-width="2"/>
<rect x="825" y="340" width="1990" height="850" fill="none" stroke="#999" stroke-width="1.5" stroke-dasharray="12 8"/>
<text x="1820.0" y="370" text-anchor="middle" font-size="32" font-family="'Noto Sans CJK SC','Noto Sans SC','Source Han Sans SC',sans-serif" fill="#888">可贴花区</text>
<rect x="300" y="800" width="420" height="530" rx="6" fill="none" stroke="#111" stroke-width="2"/>
<rect x="676.0" y="1010.0" width="28" height="110" rx="4" fill="none" stroke="#111" stroke-width="2"/>
<rect x="370" y="840" width="320" height="460" fill="none" stroke="#999" stroke-width="1.2" stroke-dasharray="10 7"/>
<g class="warning-tape" stroke="#333" stroke-width="0.8">
    <rect x="3026.0" y="220" width="43.3" height="50" fill="#c62828"/>
    <rect x="3069.3" y="220" width="43.3" height="50" fill="#d0d0d0"/>
    <rect x="3112.7" y="220" width="43.3" height="50" fill="#c62828"/>
    </g>
<g class="warning-tape slant" stroke="#333" stroke-width="0.8">
    <polygon points="3160.0,220.0 3164.4,262.2 3114.7,267.5 3110.3,225.2" fill="#c62828"/>
    <polygon points="3164.4,262.2 3168.9,304.4 3119.2,309.7 3114.7,267.5" fill="#d0d0d0"/>
    <polygon points="3168.9,304.4 3173.3,346.7 3123.6,351.9 3119.2,309.7" fill="#c62828"/>
    <polygon points="3173.3,346.7 3177.8,388.9 3128.1,394.1 3123.6,351.9" fill="#d0d0d0"/>
    <polygon points="3177.8,388.9 3182.2,431.1 3132.5,436.3 3128.1,394.1" fill="#c62828"/>
    <polygon points="3182.2,431.1 3186.7,473.3 3136.9,478.6 3132.5,436.3" fill="#d0d0d0"/>
    <polygon points="3186.7,473.3 3191.1,515.6 3141.4,520.8 3136.9,478.6" fill="#c62828"/>
    <polygon points="3191.1,515.6 3195.6,557.8 3145.8,563.0 3141.4,520.8" fill="#d0d0d0"/>
    <polygon points="3195.6,557.8 3200.0,600.0 3150.3,605.2 3145.8,563.0" fill="#c62828"/>
    <polygon points="3200.0,600.0 3204.4,642.2 3154.7,647.5 3150.3,605.2" fill="#d0d0d0"/>
    <polygon points="3204.4,642.2 3208.9,684.4 3159.2,689.7 3154.7,647.5" fill="#c62828"/>
    <polygon points="3208.9,684.4 3213.3,726.7 3163.6,731.9 3159.2,689.7" fill="#d0d0d0"/>
    <polygon points="3213.3,726.7 3217.8,768.9 3168.1,774.1 3163.6,731.9" fill="#c62828"/>
    <polygon points="3217.8,768.9 3222.2,811.1 3172.5,816.3 3168.1,774.1" fill="#d0d0d0"/>
    <polygon points="3222.2,811.1 3226.7,853.3 3176.9,858.6 3172.5,816.3" fill="#c62828"/>
    <polygon points="3226.7,853.3 3231.1,895.6 3181.4,900.8 3176.9,858.6" fill="#d0d0d0"/>
    <polygon points="3231.1,895.6 3235.6,937.8 3185.8,943.0 3181.4,900.8" fill="#c62828"/>
    <polygon points="3235.6,937.8 3240.0,980.0 3190.3,985.2 3185.8,943.0" fill="#d0d0d0"/>
    <polygon points="3240.0,980.0 3244.4,1022.2 3194.7,1027.5 3190.3,985.2" fill="#c62828"/>
    <polygon points="3244.4,1022.2 3248.9,1064.4 3199.2,1069.7 3194.7,1027.5" fill="#d0d0d0"/>
    <polygon points="3248.9,1064.4 3253.3,1106.7 3203.6,1111.9 3199.2,1069.7" fill="#c62828"/>
    <polygon points="3253.3,1106.7 3257.8,1148.9 3208.1,1154.1 3203.6,1111.9" fill="#d0d0d0"/>
    <polygon points="3257.8,1148.9 3262.2,1191.1 3212.5,1196.3 3208.1,1154.1" fill="#c62828"/>
    <polygon points="3262.2,1191.1 3266.7,1233.3 3216.9,1238.6 3212.5,1196.3" fill="#d0d0d0"/>
    <polygon points="3266.7,1233.3 3271.1,1275.6 3221.4,1280.8 3216.9,1238.6" fill="#c62828"/>
    <polygon points="3271.1,1275.6 3275.6,1317.8 3225.8,1323.0 3221.4,1280.8" fill="#d0d0d0"/>
    <polygon points="3275.6,1317.8 3280.0,1360.0 3230.3,1365.2 3225.8,1323.0" fill="#c62828"/>
    </g>
<g class="warning-tape" stroke="#333" stroke-width="0.8">
    <rect x="3146.0" y="1310" width="43.3" height="50" fill="#c62828"/>
    <rect x="3189.3" y="1310" width="43.3" height="50" fill="#d0d0d0"/>
    <rect x="3232.7" y="1310" width="43.3" height="50" fill="#c62828"/>
    </g>
<g class="warning-tape" stroke="#333" stroke-width="0.8">
    <rect x="744.0" y="220" width="43.3" height="50" fill="#c62828"/>
    <rect x="787.3" y="220" width="43.3" height="50" fill="#d0d0d0"/>
    <rect x="830.7" y="220" width="43.3" height="50" fill="#c62828"/>
    </g>
<g class="warning-tape" stroke="#333" stroke-width="0.8">
    <rect x="740" y="220.0" width="50" height="43.3" fill="#c62828"/>
    <rect x="740" y="263.3" width="50" height="43.3" fill="#d0d0d0"/>
    <rect x="740" y="306.7" width="50" height="43.3" fill="#c62828"/>
    </g>
<g class="warning-tape" stroke="#333" stroke-width="0.8">
    <rect x="602.0" y="780" width="43.3" height="50" fill="#c62828"/>
    <rect x="645.3" y="780" width="43.3" height="50" fill="#d0d0d0"/>
    <rect x="688.7" y="780" width="43.3" height="50" fill="#c62828"/>
    </g>
<g class="warning-tape" stroke="#333" stroke-width="0.8">
    <rect x="284.0" y="780" width="43.3" height="50" fill="#c62828"/>
    <rect x="327.3" y="780" width="43.3" height="50" fill="#d0d0d0"/>
    <rect x="370.7" y="780" width="43.3" height="50" fill="#c62828"/>
    </g>
<g class="warning-tape" stroke="#333" stroke-width="0.8">
    <rect x="280" y="780.0" width="50" height="43.3" fill="#c62828"/>
    <rect x="280" y="823.3" width="50" height="43.3" fill="#d0d0d0"/>
    <rect x="280" y="866.7" width="50" height="43.3" fill="#c62828"/>
    </g>
<g class="warning-tape" stroke="#333" stroke-width="0.8">
    <rect x="288.0" y="1310" width="43.3" height="50" fill="#c62828"/>
    <rect x="331.3" y="1310" width="43.3" height="50" fill="#d0d0d0"/>
    <rect x="374.7" y="1310" width="43.3" height="50" fill="#c62828"/>
    </g>
<text x="3190" y="298" text-anchor="middle" font-size="18" font-family="'Noto Sans CJK SC','Noto Sans SC','Source Han Sans SC',sans-serif" fill="#c62828">警示贴条·不可贴花</text>
<rect x="1500.0" y="1440" width="560.0" height="200" rx="8" fill="none" stroke="#111" stroke-width="2"/>
<circle cx="1990.0" cy="1540.0" r="28" fill="none" stroke="#111" stroke-width="2"/>
<path d="M 1992.0,1524.0 L 1982.0,1542.0 L 1991.0,1542.0 L 1988.0,1556.0 L 2000.0,1538.0 L 1991.0,1538.0 Z" fill="none" stroke="#111" stroke-width="2" stroke-linejoin="round"/>
<rect x="1540.0" y="1412" width="480.0" height="14" rx="3" fill="none" stroke="#111" stroke-width="1.5"/>
<path d="M 2370.0,1360.0 L 2370.0,1680.0 A 275.0 275.0 0 0 1 2950.0,1680.0 L 2950.0,1360.0 Z" fill="#fff" stroke="#111" stroke-width="2"/>

  <g class="wheel">
    <line x1="2790.0" y1="1680.0" x2="2900.0" y2="1680.0" stroke="#bbb" stroke-width="2"/>
    <line x1="2783.6" y1="1720.2" x2="2888.3" y2="1754.2" stroke="#bbb" stroke-width="2"/>
    <line x1="2765.2" y1="1756.4" x2="2854.2" y2="1821.1" stroke="#bbb" stroke-width="2"/>
    <line x1="2736.4" y1="1785.2" x2="2801.1" y2="1874.2" stroke="#bbb" stroke-width="2"/>
    <line x1="2700.2" y1="1803.6" x2="2734.2" y2="1908.3" stroke="#bbb" stroke-width="2"/>
    <line x1="2660.0" y1="1810.0" x2="2660.0" y2="1920.0" stroke="#bbb" stroke-width="2"/>
    <line x1="2619.8" y1="1803.6" x2="2585.8" y2="1908.3" stroke="#bbb" stroke-width="2"/>
    <line x1="2583.6" y1="1785.2" x2="2518.9" y2="1874.2" stroke="#bbb" stroke-width="2"/>
    <line x1="2554.8" y1="1756.4" x2="2465.8" y2="1821.1" stroke="#bbb" stroke-width="2"/>
    <line x1="2536.4" y1="1720.2" x2="2431.7" y2="1754.2" stroke="#bbb" stroke-width="2"/>
    <line x1="2530.0" y1="1680.0" x2="2420.0" y2="1680.0" stroke="#bbb" stroke-width="2"/>
    <line x1="2536.4" y1="1639.8" x2="2431.7" y2="1605.8" stroke="#bbb" stroke-width="2"/>
    <line x1="2554.8" y1="1603.6" x2="2465.8" y2="1538.9" stroke="#bbb" stroke-width="2"/>
    <line x1="2583.6" y1="1574.8" x2="2518.9" y2="1485.8" stroke="#bbb" stroke-width="2"/>
    <line x1="2619.8" y1="1556.4" x2="2585.8" y2="1451.7" stroke="#bbb" stroke-width="2"/>
    <line x1="2660.0" y1="1550.0" x2="2660.0" y2="1440.0" stroke="#bbb" stroke-width="2"/>
    <line x1="2700.2" y1="1556.4" x2="2734.2" y2="1451.7" stroke="#bbb" stroke-width="2"/>
    <line x1="2736.4" y1="1574.8" x2="2801.1" y2="1485.8" stroke="#bbb" stroke-width="2"/>
    <line x1="2765.2" y1="1603.6" x2="2854.2" y2="1538.9" stroke="#bbb" stroke-width="2"/>
    <line x1="2783.6" y1="1639.8" x2="2888.3" y2="1605.8" stroke="#bbb" stroke-width="2"/>
    <circle cx="2660" cy="1680.0" r="240.0" fill="none" stroke="#111" stroke-width="2.5"/>
    <circle cx="2660" cy="1680.0" r="130.0" fill="#fff" stroke="#111" stroke-width="2"/>
    <circle cx="2660" cy="1680.0" r="45.0" fill="none" stroke="#111" stroke-width="1.5"/>
  </g>
<path d="M 610.0,1360.0 L 610.0,1680.0 A 275.0 275.0 0 0 1 1190.0,1680.0 L 1190.0,1360.0 Z" fill="#fff" stroke="#111" stroke-width="2"/>

  <g class="wheel">
    <line x1="1030.0" y1="1680.0" x2="1140.0" y2="1680.0" stroke="#bbb" stroke-width="2"/>
    <line x1="1023.6" y1="1720.2" x2="1128.3" y2="1754.2" stroke="#bbb" stroke-width="2"/>
    <line x1="1005.2" y1="1756.4" x2="1094.2" y2="1821.1" stroke="#bbb" stroke-width="2"/>
    <line x1="976.4" y1="1785.2" x2="1041.1" y2="1874.2" stroke="#bbb" stroke-width="2"/>
    <line x1="940.2" y1="1803.6" x2="974.2" y2="1908.3" stroke="#bbb" stroke-width="2"/>
    <line x1="900.0" y1="1810.0" x2="900.0" y2="1920.0" stroke="#bbb" stroke-width="2"/>
    <line x1="859.8" y1="1803.6" x2="825.8" y2="1908.3" stroke="#bbb" stroke-width="2"/>
    <line x1="823.6" y1="1785.2" x2="758.9" y2="1874.2" stroke="#bbb" stroke-width="2"/>
    <line x1="794.8" y1="1756.4" x2="705.8" y2="1821.1" stroke="#bbb" stroke-width="2"/>
    <line x1="776.4" y1="1720.2" x2="671.7" y2="1754.2" stroke="#bbb" stroke-width="2"/>
    <line x1="770.0" y1="1680.0" x2="660.0" y2="1680.0" stroke="#bbb" stroke-width="2"/>
    <line x1="776.4" y1="1639.8" x2="671.7" y2="1605.8" stroke="#bbb" stroke-width="2"/>
    <line x1="794.8" y1="1603.6" x2="705.8" y2="1538.9" stroke="#bbb" stroke-width="2"/>
    <line x1="823.6" y1="1574.8" x2="758.9" y2="1485.8" stroke="#bbb" stroke-width="2"/>
    <line x1="859.8" y1="1556.4" x2="825.8" y2="1451.7" stroke="#bbb" stroke-width="2"/>
    <line x1="900.0" y1="1550.0" x2="900.0" y2="1440.0" stroke="#bbb" stroke-width="2"/>
    <line x1="940.2" y1="1556.4" x2="974.2" y2="1451.7" stroke="#bbb" stroke-width="2"/>
    <line x1="976.4" y1="1574.8" x2="1041.1" y2="1485.8" stroke="#bbb" stroke-width="2"/>
    <line x1="1005.2" y1="1603.6" x2="1094.2" y2="1538.9" stroke="#bbb" stroke-width="2"/>
    <line x1="1023.6" y1="1639.8" x2="1128.3" y2="1605.8" stroke="#bbb" stroke-width="2"/>
    <circle cx="900" cy="1680.0" r="240.0" fill="none" stroke="#111" stroke-width="2.5"/>
    <circle cx="900" cy="1680.0" r="130.0" fill="#fff" stroke="#111" stroke-width="2"/>
    <circle cx="900" cy="1680.0" r="45.0" fill="none" stroke="#111" stroke-width="1.5"/>
  </g>
<rect x="1020" y="100" width="780" height="120" rx="10" fill="none" stroke="#111" stroke-width="2"/>
<text x="1410.0" y="170.0" text-anchor="middle" font-size="26" font-family="'Noto Sans CJK SC','Noto Sans SC','Source Han Sans SC',sans-serif" fill="#444">AC Houghton</text>
<line x1="2800" y1="220" x2="2800" y2="70" stroke="#111" stroke-width="2"/>
<circle cx="2800" cy="50" r="26" fill="none" stroke="#111" stroke-width="2"/>
<circle cx="2768" cy="50" r="11" fill="none" stroke="#111" stroke-width="1.5"/>
<circle cx="2832" cy="50" r="11" fill="none" stroke="#111" stroke-width="1.5"/>
<circle cx="2800" cy="18" r="11" fill="none" stroke="#111" stroke-width="1.5"/>
<line x1="2720" y1="220" x2="2720" y2="20" stroke="#111" stroke-width="1.5"/>
<circle cx="2720" cy="15" r="5" fill="none" stroke="#111" stroke-width="1.2"/>
<line x1="2680" y1="220" x2="2680" y2="20" stroke="#111" stroke-width="1.5"/>
<circle cx="2680" cy="15" r="5" fill="none" stroke="#111" stroke-width="1.2"/>
<rect x="2960" y="130" width="160" height="90" rx="18" fill="none" stroke="#111" stroke-width="2"/>
<text x="3040.0" y="182" text-anchor="middle" font-size="20" font-family="'Noto Sans CJK SC','Noto Sans SC','Source Han Sans SC',sans-serif" fill="#444">LiDAR</text>
<rect x="3100" y="290" width="40" height="110" fill="none" stroke="#111" stroke-width="1.5"/>
<rect x="305" y="250" width="340" height="530" rx="8" fill="#fff" stroke="#111" stroke-width="2.5"/>
<text x="475.0" y="523.0" text-anchor="middle" font-size="24" font-family="'Noto Sans CJK SC','Noto Sans SC','Source Han Sans SC',sans-serif" fill="#444">无人机机场</text>
<line x1="458.0" y1="250" x2="458.0" y2="180" stroke="#111" stroke-width="1.5"/>
<circle cx="458.0" cy="165" r="14" fill="none" stroke="#111" stroke-width="1.5"/>
<circle cx="440.0" cy="165" r="7" fill="none" stroke="#111" stroke-width="1.2"/>
<circle cx="476.0" cy="165" r="7" fill="none" stroke="#111" stroke-width="1.2"/>
<text x="3080" y="1340" font-size="22" font-family="'Noto Sans CJK SC','Noto Sans SC','Source Han Sans SC',sans-serif" fill="#888" text-anchor="middle">白上车身</text>
<text x="3080" y="1400" font-size="22" font-family="'Noto Sans CJK SC','Noto Sans SC','Source Han Sans SC',sans-serif" fill="#666" text-anchor="middle">黑下底盘（非贴花）</text>
<text x="3200" y="1975" text-anchor="middle" font-size="28" font-family="'Noto Sans CJK SC','Noto Sans SC','Source Han Sans SC',sans-serif" fill="#666">前</text>
<text x="360" y="1975" text-anchor="middle" font-size="28" font-family="'Noto Sans CJK SC','Noto Sans SC','Source Han Sans SC',sans-serif" fill="#666">后</text>
<text x="1780.0" y="2020" text-anchor="middle" font-size="52" font-weight="700" font-family="'Noto Sans CJK SC','Noto Sans SC','Source Han Sans SC',sans-serif" fill="#111">左侧视</text>
  <!-- 右侧视 nose_left=True -->
<rect x="280" y="3320" width="3000" height="560" fill="#c8c8c8" stroke="none"/>
<path d="M 400,2180 L 2820,2180 L 2820,2740 L 3280,2740 L 3280,3880 L 320,3880 A 40 40 0 0 1 280,3840 L 280,3320 L 400,2180 Z" fill="none" stroke="#111" stroke-width="3" stroke-linejoin="miter"/>
<line x1="280" y1="3320" x2="3280" y2="3320" stroke="#111" stroke-width="2.5"/>
<line x1="660" y1="2188" x2="660" y2="3320" stroke="#111" stroke-width="2"/>
<rect x="1100.0" y="2270" width="1280.0" height="820" fill="#c8c8c8" stroke="#111" stroke-width="2.5"/>
<rect x="1155.0" y="2325" width="1170.0" height="690" fill="#9a9a9a" stroke="#111" stroke-width="1.8"/>
<rect x="1670.0" y="3038.5" width="140" height="28" rx="4" fill="none" stroke="#111" stroke-width="2"/>
<text x="1740.0" y="2662.0" text-anchor="middle" font-size="36" font-family="'Noto Sans CJK SC','Noto Sans SC','Source Han Sans SC',sans-serif" fill="#333" font-weight="600">显示屏</text>
<text x="1740.0" y="2698.0" text-anchor="middle" font-size="22" font-family="'Noto Sans CJK SC','Noto Sans SC','Source Han Sans SC',sans-serif" fill="#555">安装缝·不可贴花</text>
<rect x="320" y="2260" width="320" height="1020" fill="none" stroke="#999" stroke-width="1.5" stroke-dasharray="12 8"/>
<text x="480.0" y="2310" text-anchor="middle" font-size="24" font-family="'Noto Sans CJK SC','Noto Sans SC','Source Han Sans SC',sans-serif" fill="#888">可贴花区</text>
<rect x="690" y="2260" width="390.0" height="1010" fill="none" stroke="#999" stroke-width="1.5" stroke-dasharray="12 8"/>
<text x="885.0" y="2310" text-anchor="middle" font-size="22" font-family="'Noto Sans CJK SC','Noto Sans SC','Source Han Sans SC',sans-serif" fill="#888">可贴花区</text>
<rect x="2400.0" y="2260" width="390.0" height="1010" fill="none" stroke="#999" stroke-width="1.5" stroke-dasharray="12 8"/>
<text x="2595.0" y="2310" text-anchor="middle" font-size="20" font-family="'Noto Sans CJK SC','Noto Sans SC','Source Han Sans SC',sans-serif" fill="#888">可贴花区</text>
<rect x="1100.0" y="3098" width="1280.0" height="194" fill="none" stroke="#999" stroke-width="1.2" stroke-dasharray="10 7"/>
<rect x="2840" y="2760" width="420" height="530" rx="6" fill="none" stroke="#111" stroke-width="2"/>
<rect x="2856.0" y="2970.0" width="28" height="110" rx="4" fill="none" stroke="#111" stroke-width="2"/>
<rect x="2910" y="2800" width="320" height="460" fill="none" stroke="#999" stroke-width="1.2" stroke-dasharray="10 7"/>
<g class="warning-tape" stroke="#333" stroke-width="0.8">
    <rect x="404.0" y="2180" width="43.3" height="50" fill="#c62828"/>
    <rect x="447.3" y="2180" width="43.3" height="50" fill="#d0d0d0"/>
    <rect x="490.7" y="2180" width="43.3" height="50" fill="#c62828"/>
    </g>
<g class="warning-tape slant" stroke="#333" stroke-width="0.8">
    <polygon points="400.0,2180.0 395.6,2222.2 445.3,2227.5 449.7,2185.2" fill="#c62828"/>
    <polygon points="395.6,2222.2 391.1,2264.4 440.8,2269.7 445.3,2227.5" fill="#d0d0d0"/>
    <polygon points="391.1,2264.4 386.7,2306.7 436.4,2311.9 440.8,2269.7" fill="#c62828"/>
    <polygon points="386.7,2306.7 382.2,2348.9 431.9,2354.1 436.4,2311.9" fill="#d0d0d0"/>
    <polygon points="382.2,2348.9 377.8,2391.1 427.5,2396.3 431.9,2354.1" fill="#c62828"/>
    <polygon points="377.8,2391.1 373.3,2433.3 423.1,2438.6 427.5,2396.3" fill="#d0d0d0"/>
    <polygon points="373.3,2433.3 368.9,2475.6 418.6,2480.8 423.1,2438.6" fill="#c62828"/>
    <polygon points="368.9,2475.6 364.4,2517.8 414.2,2523.0 418.6,2480.8" fill="#d0d0d0"/>
    <polygon points="364.4,2517.8 360.0,2560.0 409.7,2565.2 414.2,2523.0" fill="#c62828"/>
    <polygon points="360.0,2560.0 355.6,2602.2 405.3,2607.5 409.7,2565.2" fill="#d0d0d0"/>
    <polygon points="355.6,2602.2 351.1,2644.4 400.8,2649.7 405.3,2607.5" fill="#c62828"/>
    <polygon points="351.1,2644.4 346.7,2686.7 396.4,2691.9 400.8,2649.7" fill="#d0d0d0"/>
    <polygon points="346.7,2686.7 342.2,2728.9 391.9,2734.1 396.4,2691.9" fill="#c62828"/>
    <polygon points="342.2,2728.9 337.8,2771.1 387.5,2776.3 391.9,2734.1" fill="#d0d0d0"/>
    <polygon points="337.8,2771.1 333.3,2813.3 383.1,2818.6 387.5,2776.3" fill="#c62828"/>
    <polygon points="333.3,2813.3 328.9,2855.6 378.6,2860.8 383.1,2818.6" fill="#d0d0d0"/>
    <polygon points="328.9,2855.6 324.4,2897.8 374.2,2903.0 378.6,2860.8" fill="#c62828"/>
    <polygon points="324.4,2897.8 320.0,2940.0 369.7,2945.2 374.2,2903.0" fill="#d0d0d0"/>
    <polygon points="320.0,2940.0 315.6,2982.2 365.3,2987.5 369.7,2945.2" fill="#c62828"/>
    <polygon points="315.6,2982.2 311.1,3024.4 360.8,3029.7 365.3,2987.5" fill="#d0d0d0"/>
    <polygon points="311.1,3024.4 306.7,3066.7 356.4,3071.9 360.8,3029.7" fill="#c62828"/>
    <polygon points="306.7,3066.7 302.2,3108.9 351.9,3114.1 356.4,3071.9" fill="#d0d0d0"/>
    <polygon points="302.2,3108.9 297.8,3151.1 347.5,3156.3 351.9,3114.1" fill="#c62828"/>
    <polygon points="297.8,3151.1 293.3,3193.3 343.1,3198.6 347.5,3156.3" fill="#d0d0d0"/>
    <polygon points="293.3,3193.3 288.9,3235.6 338.6,3240.8 343.1,3198.6" fill="#c62828"/>
    <polygon points="288.9,3235.6 284.4,3277.8 334.2,3283.0 338.6,3240.8" fill="#d0d0d0"/>
    <polygon points="284.4,3277.8 280.0,3320.0 329.7,3325.2 334.2,3283.0" fill="#c62828"/>
    </g>
<g class="warning-tape" stroke="#333" stroke-width="0.8">
    <rect x="284.0" y="3270" width="43.3" height="50" fill="#c62828"/>
    <rect x="327.3" y="3270" width="43.3" height="50" fill="#d0d0d0"/>
    <rect x="370.7" y="3270" width="43.3" height="50" fill="#c62828"/>
    </g>
<g class="warning-tape" stroke="#333" stroke-width="0.8">
    <rect x="2686.0" y="2180" width="43.3" height="50" fill="#c62828"/>
    <rect x="2729.3" y="2180" width="43.3" height="50" fill="#d0d0d0"/>
    <rect x="2772.7" y="2180" width="43.3" height="50" fill="#c62828"/>
    </g>
<g class="warning-tape" stroke="#333" stroke-width="0.8">
    <rect x="2770" y="2180.0" width="50" height="43.3" fill="#c62828"/>
    <rect x="2770" y="2223.3" width="50" height="43.3" fill="#d0d0d0"/>
    <rect x="2770" y="2266.7" width="50" height="43.3" fill="#c62828"/>
    </g>
<g class="warning-tape" stroke="#333" stroke-width="0.8">
    <rect x="2828.0" y="2740" width="43.3" height="50" fill="#c62828"/>
    <rect x="2871.3" y="2740" width="43.3" height="50" fill="#d0d0d0"/>
    <rect x="2914.7" y="2740" width="43.3" height="50" fill="#c62828"/>
    </g>
<g class="warning-tape" stroke="#333" stroke-width="0.8">
    <rect x="3146.0" y="2740" width="43.3" height="50" fill="#c62828"/>
    <rect x="3189.3" y="2740" width="43.3" height="50" fill="#d0d0d0"/>
    <rect x="3232.7" y="2740" width="43.3" height="50" fill="#c62828"/>
    </g>
<g class="warning-tape" stroke="#333" stroke-width="0.8">
    <rect x="3230" y="2740.0" width="50" height="43.3" fill="#c62828"/>
    <rect x="3230" y="2783.3" width="50" height="43.3" fill="#d0d0d0"/>
    <rect x="3230" y="2826.7" width="50" height="43.3" fill="#c62828"/>
    </g>
<g class="warning-tape" stroke="#333" stroke-width="0.8">
    <rect x="3142.0" y="3270" width="43.3" height="50" fill="#c62828"/>
    <rect x="3185.3" y="3270" width="43.3" height="50" fill="#d0d0d0"/>
    <rect x="3228.7" y="3270" width="43.3" height="50" fill="#c62828"/>
    </g>
<text x="370" y="2258" text-anchor="middle" font-size="18" font-family="'Noto Sans CJK SC','Noto Sans SC','Source Han Sans SC',sans-serif" fill="#c62828">警示贴条·不可贴花</text>
<rect x="1500.0" y="3400" width="560.0" height="200" rx="8" fill="none" stroke="#111" stroke-width="2"/>
<circle cx="1570.0" cy="3500.0" r="28" fill="none" stroke="#111" stroke-width="2"/>
<path d="M 1572.0,3484.0 L 1562.0,3502.0 L 1571.0,3502.0 L 1568.0,3516.0 L 1580.0,3498.0 L 1571.0,3498.0 Z" fill="none" stroke="#111" stroke-width="2" stroke-linejoin="round"/>
<rect x="1540.0" y="3372" width="480.0" height="14" rx="3" fill="none" stroke="#111" stroke-width="1.5"/>
<path d="M 610.0,3320.0 L 610.0,3640.0 A 275.0 275.0 0 0 1 1190.0,3640.0 L 1190.0,3320.0 Z" fill="#fff" stroke="#111" stroke-width="2"/>

  <g class="wheel">
    <line x1="1030.0" y1="3640.0" x2="1140.0" y2="3640.0" stroke="#bbb" stroke-width="2"/>
    <line x1="1023.6" y1="3680.2" x2="1128.3" y2="3714.2" stroke="#bbb" stroke-width="2"/>
    <line x1="1005.2" y1="3716.4" x2="1094.2" y2="3781.1" stroke="#bbb" stroke-width="2"/>
    <line x1="976.4" y1="3745.2" x2="1041.1" y2="3834.2" stroke="#bbb" stroke-width="2"/>
    <line x1="940.2" y1="3763.6" x2="974.2" y2="3868.3" stroke="#bbb" stroke-width="2"/>
    <line x1="900.0" y1="3770.0" x2="900.0" y2="3880.0" stroke="#bbb" stroke-width="2"/>
    <line x1="859.8" y1="3763.6" x2="825.8" y2="3868.3" stroke="#bbb" stroke-width="2"/>
    <line x1="823.6" y1="3745.2" x2="758.9" y2="3834.2" stroke="#bbb" stroke-width="2"/>
    <line x1="794.8" y1="3716.4" x2="705.8" y2="3781.1" stroke="#bbb" stroke-width="2"/>
    <line x1="776.4" y1="3680.2" x2="671.7" y2="3714.2" stroke="#bbb" stroke-width="2"/>
    <line x1="770.0" y1="3640.0" x2="660.0" y2="3640.0" stroke="#bbb" stroke-width="2"/>
    <line x1="776.4" y1="3599.8" x2="671.7" y2="3565.8" stroke="#bbb" stroke-width="2"/>
    <line x1="794.8" y1="3563.6" x2="705.8" y2="3498.9" stroke="#bbb" stroke-width="2"/>
    <line x1="823.6" y1="3534.8" x2="758.9" y2="3445.8" stroke="#bbb" stroke-width="2"/>
    <line x1="859.8" y1="3516.4" x2="825.8" y2="3411.7" stroke="#bbb" stroke-width="2"/>
    <line x1="900.0" y1="3510.0" x2="900.0" y2="3400.0" stroke="#bbb" stroke-width="2"/>
    <line x1="940.2" y1="3516.4" x2="974.2" y2="3411.7" stroke="#bbb" stroke-width="2"/>
    <line x1="976.4" y1="3534.8" x2="1041.1" y2="3445.8" stroke="#bbb" stroke-width="2"/>
    <line x1="1005.2" y1="3563.6" x2="1094.2" y2="3498.9" stroke="#bbb" stroke-width="2"/>
    <line x1="1023.6" y1="3599.8" x2="1128.3" y2="3565.8" stroke="#bbb" stroke-width="2"/>
    <circle cx="900" cy="3640.0" r="240.0" fill="none" stroke="#111" stroke-width="2.5"/>
    <circle cx="900" cy="3640.0" r="130.0" fill="#fff" stroke="#111" stroke-width="2"/>
    <circle cx="900" cy="3640.0" r="45.0" fill="none" stroke="#111" stroke-width="1.5"/>
  </g>
<path d="M 2370.0,3320.0 L 2370.0,3640.0 A 275.0 275.0 0 0 1 2950.0,3640.0 L 2950.0,3320.0 Z" fill="#fff" stroke="#111" stroke-width="2"/>

  <g class="wheel">
    <line x1="2790.0" y1="3640.0" x2="2900.0" y2="3640.0" stroke="#bbb" stroke-width="2"/>
    <line x1="2783.6" y1="3680.2" x2="2888.3" y2="3714.2" stroke="#bbb" stroke-width="2"/>
    <line x1="2765.2" y1="3716.4" x2="2854.2" y2="3781.1" stroke="#bbb" stroke-width="2"/>
    <line x1="2736.4" y1="3745.2" x2="2801.1" y2="3834.2" stroke="#bbb" stroke-width="2"/>
    <line x1="2700.2" y1="3763.6" x2="2734.2" y2="3868.3" stroke="#bbb" stroke-width="2"/>
    <line x1="2660.0" y1="3770.0" x2="2660.0" y2="3880.0" stroke="#bbb" stroke-width="2"/>
    <line x1="2619.8" y1="3763.6" x2="2585.8" y2="3868.3" stroke="#bbb" stroke-width="2"/>
    <line x1="2583.6" y1="3745.2" x2="2518.9" y2="3834.2" stroke="#bbb" stroke-width="2"/>
    <line x1="2554.8" y1="3716.4" x2="2465.8" y2="3781.1" stroke="#bbb" stroke-width="2"/>
    <line x1="2536.4" y1="3680.2" x2="2431.7" y2="3714.2" stroke="#bbb" stroke-width="2"/>
    <line x1="2530.0" y1="3640.0" x2="2420.0" y2="3640.0" stroke="#bbb" stroke-width="2"/>
    <line x1="2536.4" y1="3599.8" x2="2431.7" y2="3565.8" stroke="#bbb" stroke-width="2"/>
    <line x1="2554.8" y1="3563.6" x2="2465.8" y2="3498.9" stroke="#bbb" stroke-width="2"/>
    <line x1="2583.6" y1="3534.8" x2="2518.9" y2="3445.8" stroke="#bbb" stroke-width="2"/>
    <line x1="2619.8" y1="3516.4" x2="2585.8" y2="3411.7" stroke="#bbb" stroke-width="2"/>
    <line x1="2660.0" y1="3510.0" x2="2660.0" y2="3400.0" stroke="#bbb" stroke-width="2"/>
    <line x1="2700.2" y1="3516.4" x2="2734.2" y2="3411.7" stroke="#bbb" stroke-width="2"/>
    <line x1="2736.4" y1="3534.8" x2="2801.1" y2="3445.8" stroke="#bbb" stroke-width="2"/>
    <line x1="2765.2" y1="3563.6" x2="2854.2" y2="3498.9" stroke="#bbb" stroke-width="2"/>
    <line x1="2783.6" y1="3599.8" x2="2888.3" y2="3565.8" stroke="#bbb" stroke-width="2"/>
    <circle cx="2660" cy="3640.0" r="240.0" fill="none" stroke="#111" stroke-width="2.5"/>
    <circle cx="2660" cy="3640.0" r="130.0" fill="#fff" stroke="#111" stroke-width="2"/>
    <circle cx="2660" cy="3640.0" r="45.0" fill="none" stroke="#111" stroke-width="1.5"/>
  </g>
<rect x="1760" y="2060" width="780" height="120" rx="10" fill="none" stroke="#111" stroke-width="2"/>
<text x="2150.0" y="2130.0" text-anchor="middle" font-size="26" font-family="'Noto Sans CJK SC','Noto Sans SC','Source Han Sans SC',sans-serif" fill="#444">AC Houghton</text>
<line x1="760" y1="2180" x2="760" y2="2030" stroke="#111" stroke-width="2"/>
<circle cx="760" cy="2010" r="26" fill="none" stroke="#111" stroke-width="2"/>
<circle cx="728" cy="2010" r="11" fill="none" stroke="#111" stroke-width="1.5"/>
<circle cx="792" cy="2010" r="11" fill="none" stroke="#111" stroke-width="1.5"/>
<circle cx="760" cy="1978" r="11" fill="none" stroke="#111" stroke-width="1.5"/>
<line x1="840" y1="2180" x2="840" y2="1980" stroke="#111" stroke-width="1.5"/>
<circle cx="840" cy="1975" r="5" fill="none" stroke="#111" stroke-width="1.2"/>
<line x1="880" y1="2180" x2="880" y2="1980" stroke="#111" stroke-width="1.5"/>
<circle cx="880" cy="1975" r="5" fill="none" stroke="#111" stroke-width="1.2"/>
<rect x="440" y="2090" width="160" height="90" rx="18" fill="none" stroke="#111" stroke-width="2"/>
<text x="520.0" y="2142" text-anchor="middle" font-size="20" font-family="'Noto Sans CJK SC','Noto Sans SC','Source Han Sans SC',sans-serif" fill="#444">LiDAR</text>
<rect x="420" y="2250" width="40" height="110" fill="none" stroke="#111" stroke-width="1.5"/>
<rect x="2915" y="2210" width="340" height="530" rx="8" fill="#fff" stroke="#111" stroke-width="2.5"/>
<text x="3085.0" y="2483.0" text-anchor="middle" font-size="24" font-family="'Noto Sans CJK SC','Noto Sans SC','Source Han Sans SC',sans-serif" fill="#444">无人机机场</text>
<line x1="3102.0" y1="2210" x2="3102.0" y2="2140" stroke="#111" stroke-width="1.5"/>
<circle cx="3102.0" cy="2125" r="14" fill="none" stroke="#111" stroke-width="1.5"/>
<circle cx="3084.0" cy="2125" r="7" fill="none" stroke="#111" stroke-width="1.2"/>
<circle cx="3120.0" cy="2125" r="7" fill="none" stroke="#111" stroke-width="1.2"/>
<text x="400" y="3300" font-size="22" font-family="'Noto Sans CJK SC','Noto Sans SC','Source Han Sans SC',sans-serif" fill="#888" text-anchor="middle">白上车身</text>
<text x="400" y="3360" font-size="22" font-family="'Noto Sans CJK SC','Noto Sans SC','Source Han Sans SC',sans-serif" fill="#666" text-anchor="middle">黑下底盘（非贴花）</text>
<text x="360" y="3935" text-anchor="middle" font-size="28" font-family="'Noto Sans CJK SC','Noto Sans SC','Source Han Sans SC',sans-serif" fill="#666">前</text>
<text x="3200" y="3935" text-anchor="middle" font-size="28" font-family="'Noto Sans CJK SC','Noto Sans SC','Source Han Sans SC',sans-serif" fill="#666">后</text>
<text x="1780.0" y="3980" text-anchor="middle" font-size="52" font-weight="700" font-family="'Noto Sans CJK SC','Noto Sans SC','Source Han Sans SC',sans-serif" fill="#111">右侧视</text>

  <!-- Shared length dim under left view -->
  
  <g class="dim" stroke="#111" fill="#111" stroke-width="1.5">
    <line x1="280" y1="2050.0" x2="280" y2="2090.0"/>
    <line x1="3280" y1="2050.0" x2="3280" y2="2090.0"/>
    <line x1="280" y1="2070" x2="3280" y2="2070"/>
    <text x="1780.0" y="2058" text-anchor="middle" font-size="40" font-family="'Noto Sans CJK SC','Noto Sans SC','Source Han Sans SC',sans-serif"
          stroke="none" fill="#111">3000</text>
  </g>
  
  <g class="dim" stroke="#111" fill="#111" stroke-width="1.5">
    <line x1="150.0" y1="220" x2="190.0" y2="220"/>
    <line x1="150.0" y1="1920" x2="190.0" y2="1920"/>
    <line x1="170" y1="220" x2="170" y2="1920"/>
    <text x="156" y="1070.0" text-anchor="middle" font-size="40" font-family="'Noto Sans CJK SC','Noto Sans SC','Source Han Sans SC',sans-serif"
          stroke="none" fill="#111" transform="rotate(-90 156 1070.0)">1700</text>
  </g>

  <!-- Cutout depth (估测) on left view — rear is at left -->
  
  <g class="dim" stroke="#111" fill="#111" stroke-width="1.5">
    <line x1="280" y1="150.0" x2="280" y2="190.0"/>
    <line x1="740" y1="150.0" x2="740" y2="190.0"/>
    <line x1="280" y1="170" x2="740" y2="170"/>
    <text x="510.0" y="158" text-anchor="middle" font-size="40" font-family="'Noto Sans CJK SC','Noto Sans SC','Source Han Sans SC',sans-serif"
          stroke="none" fill="#111">460 估测·开缺深</text>
  </g>
  
  <g class="dim" stroke="#111" fill="#111" stroke-width="1.5">
    <line x1="3360.0" y1="780" x2="3400.0" y2="780"/>
    <line x1="3360.0" y1="1920" x2="3400.0" y2="1920"/>
    <line x1="3380" y1="780" x2="3380" y2="1920"/>
    <text x="3366" y="1350.0" text-anchor="middle" font-size="40" font-family="'Noto Sans CJK SC','Noto Sans SC','Source Han Sans SC',sans-serif"
          stroke="none" fill="#111" transform="rotate(-90 3366 1350.0)">1140 估测·台面高</text>
  </g>

  <!-- Length + cutout on right view -->
  
  <g class="dim" stroke="#111" fill="#111" stroke-width="1.5">
    <line x1="280" y1="4010.0" x2="280" y2="4050.0"/>
    <line x1="3280" y1="4010.0" x2="3280" y2="4050.0"/>
    <line x1="280" y1="4030" x2="3280" y2="4030"/>
    <text x="1780.0" y="4018" text-anchor="middle" font-size="40" font-family="'Noto Sans CJK SC','Noto Sans SC','Source Han Sans SC',sans-serif"
          stroke="none" fill="#111">3000</text>
  </g>
  
  <g class="dim" stroke="#111" fill="#111" stroke-width="1.5">
    <line x1="150.0" y1="2180" x2="190.0" y2="2180"/>
    <line x1="150.0" y1="3880" x2="190.0" y2="3880"/>
    <line x1="170" y1="2180" x2="170" y2="3880"/>
    <text x="156" y="3030.0" text-anchor="middle" font-size="40" font-family="'Noto Sans CJK SC','Noto Sans SC','Source Han Sans SC',sans-serif"
          stroke="none" fill="#111" transform="rotate(-90 156 3030.0)">1700</text>
  </g>
  
  <g class="dim" stroke="#111" fill="#111" stroke-width="1.5">
    <line x1="2820" y1="2110.0" x2="2820" y2="2150.0"/>
    <line x1="3280" y1="2110.0" x2="3280" y2="2150.0"/>
    <line x1="2820" y1="2130" x2="3280" y2="2130"/>
    <text x="3050.0" y="2118" text-anchor="middle" font-size="40" font-family="'Noto Sans CJK SC','Noto Sans SC','Source Han Sans SC',sans-serif"
          stroke="none" fill="#111">460 估测·开缺深</text>
  </g>
  
  <g class="dim" stroke="#111" fill="#111" stroke-width="1.5">
    <line x1="3360.0" y1="2740" x2="3400.0" y2="2740"/>
    <line x1="3360.0" y1="3880" x2="3400.0" y2="3880"/>
    <line x1="3380" y1="2740" x2="3380" y2="3880"/>
    <text x="3366" y="3310.0" text-anchor="middle" font-size="40" font-family="'Noto Sans CJK SC','Noto Sans SC','Source Han Sans SC',sans-serif"
          stroke="none" fill="#111" transform="rotate(-90 3366 3310.0)">1140 估测·台面高</text>
  </g>

  <!-- Split height callout on left -->
  <g stroke="#666" fill="#666" stroke-width="1">
    <line x1="230" y1="220" x2="230" y2="1360"/>
    <text x="202" y="790.0" font-size="22" font-family="'Noto Sans CJK SC','Noto Sans SC','Source Han Sans SC',sans-serif" stroke="none"
          transform="rotate(-90 202 790.0)">白 1140</text>
    <line x1="230" y1="1360" x2="230" y2="1920"/>
    <text x="202" y="1640.0" font-size="22" font-family="'Noto Sans CJK SC','Noto Sans SC','Source Han Sans SC',sans-serif" stroke="none"
          transform="rotate(-90 202 1640.0)">黑 560</text>
  </g>

  <!-- Alignment guide: shared length edges -->
  <line x1="280" y1="200" x2="280" y2="3900"
        stroke="#ddd" stroke-width="1" stroke-dasharray="8 10"/>
  <line x1="3280" y1="200" x2="3280" y2="3900"
        stroke="#ddd" stroke-width="1" stroke-dasharray="8 10"/>

  <!-- Notes -->
  <text x="40" y="4070" font-size="24" fill="#555" font-family="'Noto Sans CJK SC','Noto Sans SC','Source Han Sans SC',sans-serif">注：仅左侧视（上，车头朝右）+ 右侧视（下，车头朝左）。斜切在车头（≈6.0°/内收120mm）；后缘垂直 + L 形开缺；无人机机场嵌于凹台内。开缺深/台面高/斜度据标注与照片估测。</text>
  <text x="40" y="4110" font-size="22" fill="#777" font-family="'Noto Sans CJK SC','Noto Sans SC','Source Han Sans SC',sans-serif">非贴花：灰底盘 / 右侧显示屏+安装缝 / 红银警示贴条（车头斜边 + 后 L 角）。虚线框=可贴花区。左侧实心门板大可贴花区。无前视/俯视。</text>
</svg>
